:FULLY-SPECIFIED
:FORCE-ALL-JOINTS-BE-3DOF
:DEGREES
918
root -0.208812 14.1228 -36.3517 372.265 -27.0419 343.483
lfemur -64.1823 31.7665 -0.275304
ltibia 70.182 0 0
lfoot -6.35936 -9.57862 0
ltoes -8.88968 0 0
rfemur 6.24081 -8.15905 13.2761
rtibia 38.8056 0 0
rfoot -22.4965 -28.9442 0
rtoes -27.4781 0 0
lowerback 11.4395 0.0725354 6.52778
upperback -1.48379 1.41991 5.63686
thorax -8.03699 0.515546 2.08282
lowerneck -3.86063 7.688 2.61636
upperneck 4.14042 10.1396 -0.557218
head 2.12495 5.07953 -0.29487
lclavicle -2.15029e-14 2.17036e-14 0
lhumerus 13.2416 15.1743 73.5351
lradius 19.4756 0 0
lwrist -45.3063 0 0
lhand -28.4188 29.0387 0
lfingers 7.12502 0 0
lthumb -1.35834 58.9474 0
rclavicle -3.62049e-14 -2.98845e-14 0
rhumerus -76.8809 21.5255 -96.4341
rradius 109.981 0 0
rwrist -68.2008 0 0
rhand -11.0995 -24.494 0
rfingers 7.12502 0 0
rthumb 14.8528 -53.9123 0
919
root -0.201418 14.1112 -36.3476 372.258 -26.9245 343.408
lfemur -64.214 31.7828 -0.292421
ltibia 70.4082 0 0
lfoot -6.41069 -9.69795 0
ltoes -8.54193 0 0
rfemur 6.33847 -8.2073 13.2668
rtibia 38.8032 0 0
rfoot -22.4811 -28.9363 0
rtoes -27.573 0 0
lowerback 11.4396 0.0291261 6.58995
upperback -1.48463 1.37589 5.71519
thorax -8.03989 0.492832 2.14067
lowerneck -3.90316 7.6932 2.64047
upperneck 4.22089 10.1469 -0.60875
head 2.16383 5.08225 -0.310377
lclavicle -2.15648e-14 1.96539e-14 0
lhumerus 13.1322 14.2705 73.6217
lradius 20.0152 0 0
lwrist -45.328 0 0
lhand -28.4023 29.0504 0
lfingers 7.12502 0 0
lthumb -1.32691 58.9404 0
rclavicle -3.58939e-14 -3.21594e-14 0
rhumerus -76.8971 21.5086 -96.3767
rradius 109.983 0 0
rwrist -68.194 0 0
rhand -11.0862 -24.5065 0
rfingers 7.12502 0 0
rthumb 14.8397 -53.9236 0
920
root -0.194865 14.1033 -36.3351 372.213 -26.9933 343.373
lfemur -64.2651 31.8091 -0.319968
ltibia 70.617 0 0
lfoot -6.46296 -9.81947 0
ltoes -8.15744 0 0
rfemur 6.42703 -8.25106 13.2583
rtibia 38.8016 0 0
rfoot -22.4667 -28.9288 0
rtoes -27.6578 0 0
lowerback 11.3876 0.0268509 6.61333
upperback -1.45583 1.37065 5.76385
thorax -7.97982 0.491457 2.17994
lowerneck -3.90984 7.72345 2.65339
upperneck 4.29391 10.1892 -0.65779
head 2.19367 5.10238 -0.323813
lclavicle -2.16219e-14 1.77629e-14 0
lhumerus 12.9581 12.8327 73.7595
lradius 20.5703 0 0
lwrist -45.0942 0 0
lhand -28.3542 29.0844 0
lfingers 7.12502 0 0
lthumb -1.30912 58.9527 0
rclavicle -3.55723e-14 -3.45115e-14 0
rhumerus -76.9128 21.4923 -96.3209
rradius 109.987 0 0
rwrist -68.1871 0 0
rhand -11.0685 -24.5229 0
rfingers 7.12502 0 0
rthumb 14.8238 -53.9374 0
921
root -0.187022 14.0946 -36.3212 372.222 -26.9796 343.346
lfemur -64.334 31.8445 -0.357143
ltibia 70.8061 0 0
lfoot -6.5157 -9.94208 0
ltoes -7.74436 0 0
rfemur 6.50529 -8.28973 13.2508
rtibia 38.8011 0 0
rfoot -22.4535 -28.922 0
rtoes -27.731 0 0
lowerback 11.2822 -0.00685124 6.67039
upperback -1.45189 1.32459 5.8152
thorax -7.91592 0.468645 2.21092
lowerneck -3.90288 7.74249 2.7256
upperneck 4.35596 10.2174 -0.782302
head 2.22542 5.11452 -0.371312
lclavicle -2.16732e-14 1.6066e-14 0
lhumerus 12.7262 10.9173 73.9431
lradius 21.1348 0 0
lwrist -44.4166 0 0
lhand -28.277 29.1391 0
lfingers 7.12502 0 0
lthumb -1.25757 58.9883 0
rclavicle -3.52443e-14 -3.691e-14 0
rhumerus -76.928 21.4765 -96.2672
rradius 109.995 0 0
rwrist -68.1804 0 0
rhand -11.0471 -24.5427 0
rfingers 7.12502 0 0
rthumb 14.8053 -53.9535 0
922
root -0.178876 14.085 -36.3119 372.251 -26.9615 343.292
lfemur -64.4192 31.8883 -0.403144
ltibia 70.9728 0 0
lfoot -6.56843 -10.0647 0
ltoes -7.31086 0 0
rfemur 6.57204 -8.32271 13.2445
rtibia 38.7992 0 0
rfoot -22.4418 -28.916 0
rtoes -27.7908 0 0
lowerback 11.2363 -0.0250223 6.72991
upperback -1.46077 1.30766 5.87112
thorax -7.90006 0.458982 2.24094
lowerneck -3.93502 7.76433 2.79797
upperneck 4.43262 10.2461 -0.863506
head 2.26655 5.12786 -0.403477
lclavicle -2.17175e-14 1.45986e-14 0
lhumerus 12.4432 8.58036 74.1671
lradius 21.7023 0 0
lwrist -43.3307 0 0
lhand -28.1729 29.2128 0
lfingers 7.12502 0 0
lthumb -1.17495 59.0455 0
rclavicle -3.49143e-14 -3.93239e-14 0
rhumerus -76.9424 21.4615 -96.2162
rradius 110.006 0 0
rwrist -68.1738 0 0
rhand -11.0227 -24.5654 0
rfingers 7.12502 0 0
rthumb 14.7846 -53.9714 0
923
root -0.168391 14.0753 -36.3003 372.16 -26.8373 343.304
lfemur -64.5194 31.9398 -0.457169
ltibia 71.1148 0 0
lfoot -6.6207 -10.1862 0
ltoes -6.86512 0 0
rfemur 6.62607 -8.34941 13.2393
rtibia 38.7939 0 0
rfoot -22.4318 -28.9108 0
rtoes -27.8356 0 0
lowerback 11.2408 -0.115182 6.80145
upperback -1.45121 1.20014 5.92606
thorax -7.89393 0.404703 2.27944
lowerneck -3.88537 7.80382 2.82784
upperneck 4.47592 10.3031 -0.941999
head 2.27979 5.1549 -0.43136
lclavicle -2.17538e-14 1.33958e-14 0
lhumerus 12.116 5.87814 74.426
lradius 22.2668 0 0
lwrist -41.872 0 0
lhand -28.0443 29.3039 0
lfingers 7.12502 0 0
lthumb -1.06396 59.1222 0
rclavicle -3.45863e-14 -4.17224e-14 0
rhumerus -76.9559 21.4474 -96.1683
rradius 110.018 0 0
rwrist -68.1674 0 0
rhand -10.9958 -24.5904 0
rfingers 7.12502 0 0
rthumb 14.7621 -53.9909 0
924
root -0.159253 14.0667 -36.2883 372.157 -26.7705 343.261
lfemur -64.6329 31.9982 -0.518415
ltibia 71.2296 0 0
lfoot -6.67203 -10.3055 0
ltoes -6.41529 0 0
rfemur 6.66616 -8.36921 13.2355
rtibia 38.7854 0 0
rfoot -22.4236 -28.9066 0
rtoes -27.8637 0 0
lowerback 11.2199 -0.161175 6.87532
upperback -1.46727 1.15264 6.00056
thorax -7.90094 0.379414 2.32747
lowerneck -3.86097 7.81912 2.8566
upperneck 4.53031 10.3274 -1.02445
head 2.30088 5.16551 -0.460181
lclavicle -2.17811e-14 1.24929e-14 0
lhumerus 11.7514 2.86683 74.7147
lradius 22.8219 0 0
lwrist -40.0759 0 0
lhand -27.8935 29.4106 0
lfingers 7.12502 0 0
lthumb -0.927306 59.2167 0
rclavicle -3.42647e-14 -4.40745e-14 0
rhumerus -76.9684 21.4344 -96.124
rradius 110.033 0 0
rwrist -68.1613 0 0
rhand -10.967 -24.6171 0
rfingers 7.12502 0 0
rthumb 14.7382 -54.0116 0
925
root -0.150218 14.0582 -36.2789 372.159 -26.7707 343.206
lfemur -64.7583 32.0627 -0.586079
ltibia 71.3146 0 0
lfoot -6.72196 -10.4216 0
ltoes -5.96955 0 0
rfemur 6.69111 -8.38154 13.2331
rtibia 38.7742 0 0
rfoot -22.4175 -28.9034 0
rtoes -27.8734 0 0
lowerback 11.2078 -0.169842 6.93913
upperback -1.46556 1.1518 6.05903
thorax -7.89293 0.377348 2.35501
lowerneck -3.87389 7.83276 2.88405
upperneck 4.60076 10.3451 -1.04299
head 2.32985 5.1743 -0.467298
lclavicle -2.17982e-14 1.19253e-14 0
lhumerus 11.3562 -0.397372 75.0275
lradius 23.3615 0 0
lwrist -37.978 0 0
lhand -27.7229 29.5314 0
lfingers 7.12502 0 0
lthumb -0.76769 59.3271 0
rclavicle -3.39537e-14 -4.63494e-14 0
rhumerus -76.9797 21.4227 -96.084
rradius 110.05 0 0
rwrist -68.1555 0 0
rhand -10.9371 -24.6449 0
rfingers 7.12502 0 0
rthumb 14.7131 -54.0333 0
926
root -0.141285 14.0502 -36.2676 372.127 -26.7991 343.152
lfemur -64.8941 32.1325 -0.65936
ltibia 71.3674 0 0
lfoot -6.77 -10.5333 0
ltoes -5.53605 0 0
rfemur 6.69969 -8.38578 13.2323
rtibia 38.7605 0 0
rfoot -22.4137 -28.9015 0
rtoes -27.8869 0 0
lowerback 11.2233 -0.200991 6.96009
upperback -1.45622 1.1192 6.14513
thorax -7.89423 0.362198 2.44215
lowerneck -3.84473 7.86387 2.88507
upperneck 4.65982 10.3903 -1.0852
head 2.34792 5.19586 -0.478554
lclavicle -2.18042e-14 1.17283e-14 0
lhumerus 10.9372 -3.85827 75.3592
lradius 23.8792 0 0
lwrist -35.6138 0 0
lhand -27.5348 29.6647 0
lfingers 7.12502 0 0
lthumb -0.587812 59.4514 0
rclavicle -3.36575e-14 -4.8516e-14 0
rhumerus -76.9897 21.4123 -96.0486
rradius 110.069 0 0
rwrist -68.1501 0 0
rhand -10.9065 -24.6733 0
rfingers 7.12502 0 0
rthumb 14.6873 -54.0557 0
927
root -0.132334 14.0415 -36.255 372.135 -26.8682 343.077
lfemur -65.0388 32.207 -0.737456
ltibia 71.3856 0 0
lfoot -6.8157 -10.6395 0
ltoes -5.12297 0 0
rfemur 6.70276 -8.39121 13.2232
rtibia 38.7447 0 0
rfoot -22.4124 -28.9008 0
rtoes -27.9262 0 0
lowerback 11.1883 -0.189746 7.01235
upperback -1.43867 1.13985 6.2185
thorax -7.85619 0.372021 2.48765
lowerneck -3.84004 7.86565 2.90813
upperneck 4.71568 10.3938 -1.1195
head 2.36936 5.19714 -0.491537
lclavicle -2.16188e-14 1.15837e-14 0
lhumerus 10.5011 -7.45966 75.7044
lradius 24.3689 0 0
lwrist -33.0188 0 0
lhand -27.3315 29.8086 0
lfingers 7.12502 0 0
lthumb -0.390374 59.5879 0
rclavicle -3.33803e-14 -5.05435e-14 0
rhumerus -76.9982 21.4034 -96.0186
rradius 110.089 0 0
rwrist -68.1453 0 0
rhand -10.8759 -24.7017 0
rfingers 7.12502 0 0
rthumb 14.6612 -54.0783 0
928
root -0.123187 14.0346 -36.2416 372.129 -26.8971 343.071
lfemur -65.191 32.2852 -0.819562
ltibia 71.4104 0 0
lfoot -6.85858 -10.7392 0
ltoes -4.73848 0 0
rfemur 6.71165 -8.40689 13.197
rtibia 38.7272 0 0
rfoot -22.4156 -28.8914 0
rtoes -27.9891 0 0
lowerback 11.0618 -0.191947 7.07447
upperback -1.38404 1.12638 6.24615
thorax -7.72401 0.365997 2.48206
lowerneck -3.8756 7.87518 2.91019
upperneck 4.75676 10.4037 -1.08441
head 2.3876 5.20286 -0.478039
lclavicle -2.10857e-14 1.11681e-14 0
lhumerus 10.0548 -11.1454 76.0576
lradius 24.8244 0 0
lwrist -30.2285 0 0
lhand -27.1154 29.9617 0
lfingers 7.12502 0 0
lthumb -0.178078 59.7347 0
rclavicle -3.31263e-14 -5.2401e-14 0
rhumerus -77.0051 21.3963 -95.9943
rradius 110.11 0 0
rwrist -68.1409 0 0
rhand -10.846 -24.7295 0
rfingers 7.12502 0 0
rthumb 14.6351 -54.1009 0
929
root -0.113507 14.0261 -36.2289 372.128 -26.9267 343.04
lfemur -65.3491 32.3665 -0.904879
ltibia 71.4815 0 0
lfoot -6.89817 -10.8313 0
ltoes -4.39073 0 0
rfemur 6.72583 -8.43193 13.155
rtibia 38.7083 0 0
rfoot -22.4247 -28.8641 0
rtoes -28.0736 0 0
lowerback 11.0154 -0.209508 7.1003
upperback -1.37367 1.10376 6.31442
thorax -7.68775 0.355788 2.54451
lowerneck -3.87535 7.8997 2.95713
upperneck 4.84746 10.4371 -1.13346
head 2.42459 5.21905 -0.49716
lclavicle -2.02397e-14 1.05085e-14 0
lhumerus 9.60517 -14.8591 76.4136
lradius 25.2393 0 0
lwrist -27.2785 0 0
lhand -26.8888 30.1221 0
lfingers 7.12502 0 0
lthumb 0.0463756 59.8899 0
rclavicle -3.28998e-14 -5.40575e-14 0
rhumerus -77.0102 21.391 -95.9762
rradius 110.133 0 0
rwrist -68.1373 0 0
rhand -10.8172 -24.7562 0
rfingers 7.12502 0 0
rthumb 14.6093 -54.1233 0
930
root -0.102342 14.019 -36.2164 372.171 -26.9449 342.996
lfemur -65.5117 32.4501 -0.992602
ltibia 71.594 0 0
lfoot -6.93401 -10.9146 0
ltoes -4.08789 0 0
rfemur 6.74482 -8.46545 13.0989
rtibia 38.6883 0 0
rfoot -22.4393 -28.8203 0
rtoes -28.1776 0 0
lowerback 10.9335 -0.228644 7.15683
upperback -1.36331 1.07908 6.3886
thorax -7.63091 0.343667 2.5961
lowerneck -3.87311 7.91217 2.96319
upperneck 4.90161 10.4554 -1.1583
head 2.44465 5.22759 -0.503847
lclavicle -1.91156e-14 9.63203e-15 0
lhumerus 9.15891 -18.5448 76.7668
lradius 25.6074 0 0
lwrist -24.2041 0 0
lhand -26.6539 30.2884 0
lfingers 7.12502 0 0
lthumb 0.280284 60.0516 0
rclavicle -3.2705e-14 -5.54822e-14 0
rhumerus -77.0133 21.3877 -95.965
rradius 110.156 0 0
rwrist -68.1343 0 0
rhand -10.7903 -24.7812 0
rfingers 7.12502 0 0
rthumb 14.5842 -54.145 0
